<svg width="149" height="113" viewBox="0 0 149 113" fill="none" xmlns="http://www.w3.org/2000/svg">
    <g clip-path="url(#clip0_8063_950)">
        <path
            d="M43.6894 47.3749C41.2029 39.362 39.8572 30.9297 39.7256 22.4047C50.6564 15.5964 62.6502 12.0021 74.4976 12.0021C86.3451 12.0021 98.3388 15.5964 109.27 22.4047C109.138 30.9297 107.792 39.362 105.306 47.3749H107.524C110.04 39.0109 111.376 30.1348 111.376 21.044C99.9672 13.67 87.2324 9.65137 74.4927 9.65137C61.7531 9.65137 49.0232 13.6651 37.6096 21.044C37.6096 30.1348 38.9504 39.0109 41.4613 47.3749H43.6796H43.6894Z"
            fill="#F6A1C9" />
        <path
            d="M81.7329 38.8206L88.9681 41.9468V34.7971C88.9681 34.7971 87.8078 30.598 85.3505 30.4175C82.8933 30.2371 81.7329 32.4708 81.7329 33.5437V38.8157V38.8206Z"
            fill="#F6A1C9" />
        <path d="M79.1099 21.103L83.2004 22.7124V16.543L79.1099 21.103Z" fill="#F6A1C9" />
        <path d="M87.4858 24.8578L91.5715 26.4673V20.2979L87.4858 24.8578Z" fill="#F6A1C9" />
        <path
            d="M74.4733 0.263362C74.3514 -0.20483 73.4446 -0.0438889 71.8844 0.707169C70.2072 1.51187 69.0712 4.25762 68.4667 4.66241C67.8621 5.06233 67.8621 4.39418 67.2624 3.52119C66.6579 2.64821 66.1898 3.52119 66.1898 3.52119C66.1898 3.52119 64.7174 5.39884 63.4449 6.69124C62.1724 7.98365 60.0272 7.60812 60.0272 7.60812C61.5679 8.61278 63.1085 8.07631 63.8447 7.53984C64.5809 7.00337 65.5853 6.33522 66.458 6.69124C67.3307 7.04726 67.5988 7.87635 68.6032 8.32991C69.6075 8.78347 69.7441 7.94463 71.2847 8.21286C71.8649 8.31528 72.4646 8.33967 72.9863 8.32991V13.7483L70.6168 14.6456V22.1513L65.79 24.1606V16.5184L61.368 18.5277V26.5699L56.4096 28.4475V20.0006L52.1191 22.1464V46.4095H74.4977V0.263362H74.4733ZM66.7895 40.7278L59.5543 43.854V36.7043C59.5543 36.7043 60.7146 32.5052 63.1719 32.3247C65.6291 32.1443 66.7895 34.3779 66.7895 35.4509V40.7229V40.7278Z"
            fill="#F6A1C9" />
        <path
            d="M31.5835 47.0877C38.7358 46.6927 45.8882 46.4879 53.0406 46.3513C56.6192 46.2635 60.1929 46.244 63.7715 46.1952L74.5025 46.1416L85.2334 46.1904C88.8121 46.244 92.3858 46.2586 95.9644 46.3464C103.117 46.4879 110.269 46.6927 117.421 47.0877C110.269 47.4828 103.117 47.6876 95.9644 47.829C92.3858 47.9168 88.8121 47.9363 85.2334 47.99L74.5025 48.0388L63.7715 47.9851C60.1978 47.9315 56.6192 47.912 53.0406 47.829C45.8882 47.6876 38.7358 47.4828 31.5835 47.0926"
            fill="#F6A1C9" />
        <path
            d="M17.9517 91.5115C27.376 91.097 36.8003 90.8824 46.2247 90.7312C50.9344 90.6385 55.649 90.619 60.3636 90.5654L74.5025 90.5117L88.6414 90.5654C93.3561 90.6239 98.0658 90.6385 102.78 90.7312C112.205 90.8775 121.629 91.097 131.053 91.5115C121.629 91.926 112.205 92.1455 102.78 92.2918C98.0707 92.3845 93.3561 92.404 88.6414 92.4576L74.5025 92.5113L60.3636 92.4576C55.649 92.404 50.9393 92.3845 46.2247 92.2918C36.8003 92.1455 27.376 91.926 17.9517 91.5115Z"
            fill="#F6A1C9" />
        <path
            d="M39.6719 112.874V101.037H39.6865L45.698 109.572L45.0495 109.445L51.0464 101.037H51.0805V112.874H49.5594V104.529L49.6569 105.304L45.3274 111.43H45.2982L40.9054 105.304L41.1735 104.592V112.874H39.6816H39.6719Z"
            fill="#F6A1C9" />
        <path
            d="M57.4724 107.148C57.4724 106.353 57.6236 105.607 57.9258 104.905C58.2281 104.203 58.6474 103.578 59.1886 103.032C59.7298 102.486 60.349 102.057 61.051 101.749C61.7531 101.442 62.5137 101.281 63.3279 101.281C64.1421 101.281 64.8832 101.437 65.5901 101.749C66.2922 102.062 66.9162 102.491 67.4623 103.032C68.0084 103.578 68.4325 104.203 68.7397 104.905C69.0468 105.607 69.198 106.358 69.198 107.148C69.198 107.938 69.0468 108.724 68.7397 109.431C68.4325 110.138 68.0084 110.762 67.4623 111.294C66.9162 111.83 66.2922 112.245 65.5901 112.547C64.888 112.849 64.1323 113.001 63.3279 113.001C62.5234 113.001 61.7531 112.854 61.051 112.557C60.349 112.259 59.7249 111.85 59.1886 111.318C58.6474 110.791 58.2281 110.172 57.9258 109.46C57.6236 108.748 57.4724 107.977 57.4724 107.143V107.148ZM59.0569 107.163C59.0569 107.768 59.1691 108.329 59.3885 108.85C59.6128 109.372 59.915 109.835 60.3099 110.24C60.7049 110.645 61.1583 110.957 61.6751 111.186C62.1919 111.416 62.7526 111.528 63.3571 111.528C63.9617 111.528 64.5029 111.416 65.0246 111.186C65.5462 110.957 65.9899 110.645 66.3751 110.24C66.7554 109.84 67.0576 109.377 67.277 108.85C67.5013 108.329 67.6086 107.758 67.6086 107.143C67.6086 106.529 67.4964 105.973 67.277 105.436C67.0528 104.905 66.7505 104.437 66.3556 104.032C65.9655 103.632 65.5072 103.315 64.9904 103.086C64.4736 102.857 63.9178 102.744 63.323 102.744C62.7282 102.744 62.1578 102.861 61.641 103.095C61.1242 103.33 60.6659 103.647 60.2758 104.047C59.8858 104.451 59.5835 104.919 59.3739 105.451C59.1642 105.988 59.0569 106.553 59.0569 107.158V107.163Z"
            fill="#F6A1C9" />
        <path d="M74.7461 101.403H82.3616V102.881H79.2852V112.879H77.7445V102.881H74.7461V101.403Z"
            fill="#F6A1C9" />
        <path
            d="M88.6072 101.403H96.0618V102.881H90.1478V106.373H95.428V107.851H90.1478V111.406H96.2861V112.884H88.6072V101.413V101.403Z"
            fill="#F6A1C9" />
        <path d="M102.761 101.403H104.301V111.401H110.123V112.879H102.761V101.408V101.403Z"
            fill="#F6A1C9" />
        <path
            d="M113.063 79.471L107.046 60.8604H111.239L115.383 73.9453H115.437L119.63 60.8604H123.852L117.675 79.471H113.063Z"
            fill="#F6A1C9" />
        <path d="M130.054 60.8604H125.963V79.471H130.054V60.8604Z" fill="#F6A1C9" />
        <path
            d="M142.564 60.8603C143.73 60.8603 144.719 61.031 145.533 61.3676C146.348 61.7089 147.016 62.1528 147.528 62.7087C148.039 63.2647 148.415 63.8987 148.649 64.6108C148.883 65.3228 149 66.0641 149 66.8249C149 67.5857 148.883 68.3075 148.649 69.0293C148.415 69.7511 148.039 70.39 147.528 70.946C147.016 71.502 146.353 71.9506 145.533 72.2871C144.714 72.6285 143.725 72.7944 142.564 72.7944H138.264V79.4661H134.174V60.8555H142.564V60.8603ZM141.443 69.6194C141.911 69.6194 142.364 69.5853 142.798 69.517C143.232 69.4487 143.617 69.3122 143.944 69.1122C144.276 68.9123 144.539 68.6294 144.739 68.2636C144.939 67.8979 145.041 67.4199 145.041 66.8298C145.041 66.2397 144.939 65.7617 144.739 65.396C144.539 65.0302 144.276 64.7473 143.944 64.5474C143.613 64.3474 143.232 64.2108 142.798 64.1426C142.364 64.0743 141.911 64.0401 141.443 64.0401H138.264V69.6194H141.443Z"
            fill="#F6A1C9" />
        <path
            d="M12.1107 63.9573C11.1649 63.2989 10.0484 62.9721 8.74664 62.9721C7.6399 62.9721 6.68918 63.1818 5.90422 63.5964C5.11439 64.0109 4.46595 64.5718 3.95403 65.2692C3.4421 65.9715 3.06669 66.7713 2.82291 67.6735C2.57914 68.5758 2.46213 69.5073 2.46213 70.4778C2.46213 71.5361 2.58401 72.5359 2.82291 73.4772C3.06669 74.4184 3.4421 75.2426 3.95403 75.9449C4.46595 76.6472 5.11927 77.2032 5.91398 77.6177C6.70868 78.0323 7.66428 78.242 8.77102 78.242C9.58522 78.242 10.3068 78.1103 10.9406 77.8372C11.5696 77.569 12.1156 77.1983 12.5739 76.7204C13.0322 76.2424 13.393 75.6767 13.6514 75.0183C13.9098 74.3599 14.0658 73.6527 14.1194 72.8871H16.5864C16.3427 75.2231 15.5382 77.0423 14.1731 78.3395C12.8079 79.6368 10.9357 80.2855 8.56625 80.2855C7.12797 80.2855 5.87497 80.0416 4.80236 79.5442C3.72975 79.0516 2.83754 78.3737 2.13059 77.5056C1.41877 76.6375 0.88734 75.6182 0.531429 74.4428C0.175518 73.2675 0 72.0043 0 70.6534C0 69.3025 0.190144 68.0345 0.570433 66.8493C0.950722 65.6642 1.5114 64.6303 2.2476 63.7476C2.9838 62.8648 3.9004 62.1674 4.99738 61.6553C6.09437 61.1433 7.35712 60.8896 8.77589 60.8896C9.74612 60.8896 10.6627 61.0213 11.5257 61.2798C12.3886 61.5383 13.159 61.9187 13.8367 62.421C14.5143 62.9234 15.075 63.5525 15.5236 64.3035C15.9721 65.0546 16.2695 65.9276 16.406 66.9127H13.939C13.6611 65.5959 13.0517 64.6108 12.1107 63.9524"
            fill="#F6A1C9" />
        <path
            d="M27.9316 61.3379L35.1717 79.8802H32.4463L30.423 74.2961H22.5832L20.5062 79.8802H17.9905L25.2062 61.3379H27.9316ZM29.6478 72.2185L26.5567 63.5716H26.5031L23.3633 72.2185H29.6478Z"
            fill="#F6A1C9" />
        <path
            d="M46.795 63.8695C45.9711 63.2696 44.9228 62.9721 43.6406 62.9721C43.1238 62.9721 42.6119 63.0258 42.1097 63.1282C41.6075 63.2306 41.1638 63.4062 40.7738 63.6452C40.3838 63.889 40.0717 64.2109 39.8377 64.6206C39.6037 65.0253 39.4867 65.5326 39.4867 66.1373C39.4867 66.7079 39.6573 67.1712 39.9937 67.5272C40.3301 67.8833 40.7787 68.171 41.3442 68.3954C41.9049 68.6197 42.5436 68.805 43.2505 68.9513C43.9624 69.0976 44.6839 69.2586 45.4201 69.4341C46.1563 69.6048 46.8779 69.8097 47.5897 70.0438C48.2967 70.2779 48.9354 70.5949 49.4961 70.9899C50.0567 71.3898 50.5102 71.8922 50.8466 72.4969C51.183 73.1016 51.3536 73.8625 51.3536 74.7842C51.3536 75.7694 51.1342 76.6131 50.6906 77.3154C50.2469 78.0177 49.6813 78.5883 48.989 79.0272C48.2967 79.471 47.5215 79.788 46.6683 79.988C45.8102 80.1879 44.957 80.2855 44.1135 80.2855C43.075 80.2855 42.0951 80.1587 41.1687 79.8953C40.2424 79.6368 39.4282 79.2418 38.731 78.7151C38.0289 78.1884 37.478 77.5105 37.0684 76.6911C36.6638 75.8669 36.459 74.8964 36.459 73.7698H38.7943C38.7943 74.5501 38.9455 75.2183 39.2478 75.784C39.55 76.3449 39.9498 76.8082 40.4423 77.1739C40.9347 77.5348 41.51 77.808 42.1682 77.9786C42.8264 78.1542 43.4992 78.2371 44.1915 78.2371C44.7473 78.2371 45.3031 78.1835 45.8638 78.0811C46.4245 77.9787 46.9316 77.7982 47.385 77.5495C47.8335 77.3007 48.1992 76.9545 48.4771 76.5253C48.755 76.0913 48.8915 75.5402 48.8915 74.8622C48.8915 74.2234 48.7209 73.7015 48.3844 73.3065C48.048 72.9066 47.5946 72.5847 47.0339 72.3311C46.4733 72.0824 45.8346 71.8775 45.1276 71.7215C44.4158 71.5654 43.6942 71.4045 42.958 71.2435C42.2218 71.0777 41.5002 70.8875 40.7884 70.6729C40.0766 70.4583 39.4428 70.1706 38.8821 69.8146C38.3214 69.4585 37.868 69.0001 37.5316 68.4392C37.1952 67.8784 37.0245 67.1712 37.0245 66.3226C37.0245 65.3862 37.2147 64.5815 37.595 63.8939C37.9753 63.2111 38.4823 62.6454 39.1113 62.2064C39.7402 61.7675 40.4618 61.4359 41.2662 61.2213C42.0707 61.0067 42.8995 60.8945 43.7479 60.8945C44.6986 60.8945 45.581 61.0067 46.3952 61.231C47.2095 61.4554 47.9213 61.8114 48.5356 62.2942C49.1499 62.7771 49.6326 63.3916 49.9885 64.1231C50.3444 64.8595 50.5394 65.7374 50.5735 66.7567H48.2382C48.1017 65.4253 47.619 64.4596 46.7999 63.8597"
            fill="#F6A1C9" />
        <path d="M52.8796 63.4106V61.3379H67.706V63.4106H61.5239V79.8754H59.0618V63.4106H52.8796Z"
            fill="#F6A1C9" />
        <path d="M72.7375 61.3379V77.7978H82.5519V79.8754H70.2754V61.3379H72.7375Z" fill="#F6A1C9" />
        <path
            d="M98.0267 61.3379V63.4106H87.6955V69.3069H97.3246V71.3845H87.6955V77.7978H98.1047V79.8754H85.2285V61.3379H98.0267Z"
            fill="#F6A1C9" />
    </g>
    <defs>
        <clipPath id="clip0_8063_950">
            <rect width="149" height="113" fill="white" />
        </clipPath>
    </defs>
</svg>