<svg width="94" height="153" viewBox="0 0 94 153" fill="none" xmlns="http://www.w3.org/2000/svg">
    <path
        d="M13.9668 125.937L1.14307 86.2866H10.0797L18.9046 114.165H19.0162L27.9528 86.2866H36.9433L23.7886 125.937H13.9668Z"
        fill="#F6A1C9" />
    <path d="M50.1518 86.2866H41.4385V125.937H50.1518V86.2866Z" fill="#F6A1C9" />
    <path
        d="M76.7961 86.2866C79.2746 86.2866 81.3837 86.6486 83.1233 87.3687C84.8629 88.0926 86.2753 89.0437 87.3684 90.2297C88.4614 91.4157 89.2542 92.7673 89.7545 94.2844C90.2548 95.8016 90.505 97.3765 90.505 99.0053C90.505 100.634 90.2548 102.163 89.7545 103.699C89.2542 105.236 88.4575 106.595 87.3684 107.781C86.2753 108.967 84.859 109.918 83.1233 110.642C81.3837 111.366 79.2746 111.724 76.7961 111.724H67.6401V125.941H58.9268V86.2905H76.7999L76.7961 86.2866ZM74.4099 104.947C75.4067 104.947 76.3689 104.874 77.2964 104.724C78.2201 104.577 79.036 104.288 79.7403 103.861C80.4408 103.437 81.0065 102.833 81.4337 102.055C81.8609 101.277 82.0726 100.261 82.0726 99.0015C82.0726 97.7423 81.8609 96.7258 81.4337 95.9479C81.0104 95.1701 80.4446 94.5694 79.7403 94.142C79.036 93.7184 78.2201 93.4296 77.2964 93.2794C76.3727 93.1331 75.4106 93.0561 74.4099 93.0561H67.6363V104.939H74.4099V104.947Z"
        fill="#F6A1C9" />
    <path
        d="M11.0841 63.7217C10.222 63.121 9.19445 62.8207 8.00906 62.8207C6.99686 62.8207 6.12707 63.0094 5.40737 63.3906C4.68767 63.7718 4.09497 64.2801 3.62544 64.9231C3.15975 65.5662 2.81337 66.2978 2.594 67.1219C2.37462 67.9459 2.26301 68.8008 2.26301 69.6864C2.26301 70.6529 2.37462 71.5655 2.594 72.4281C2.81722 73.2906 3.15975 74.0454 3.62544 74.6846C4.09113 75.3276 4.69152 75.8359 5.41891 76.2171C6.14631 76.5983 7.01611 76.787 8.03215 76.787C8.77494 76.787 9.43691 76.6638 10.0142 76.4174C10.5915 76.1709 11.0918 75.8321 11.5075 75.3969C11.927 74.9618 12.258 74.442 12.4927 73.8413C12.7314 73.2406 12.8738 72.5898 12.92 71.8928H15.1753C14.952 74.03 14.2169 75.6934 12.9661 76.8833C11.7153 78.0693 10.0065 78.6661 7.83587 78.6661C6.52348 78.6661 5.37658 78.4428 4.39517 77.9884C3.41376 77.5379 2.59785 76.9141 1.94742 76.1247C1.297 75.3315 0.812067 74.3996 0.48878 73.3214C0.165492 72.2433 0 71.088 0 69.852C0 68.6159 0.17319 67.4569 0.523418 66.371C0.869797 65.2851 1.38167 64.3417 2.05518 63.5331C2.72485 62.7244 3.56771 62.0891 4.57221 61.6193C5.57671 61.1534 6.72746 60.9185 8.0283 60.9185C8.9135 60.9185 9.7525 61.0378 10.5453 61.2766C11.3382 61.5153 12.0425 61.8619 12.6582 62.3201C13.2779 62.7783 13.7897 63.3521 14.2016 64.0413C14.6134 64.7306 14.8828 65.5277 15.0098 66.4288H12.7545C12.5004 65.2235 11.9424 64.3224 11.0803 63.7217"
        fill="#F6A1C9" />
    <path
        d="M25.5592 61.3228L32.1828 78.2849H29.6888L27.8376 73.1751H20.6676L18.7663 78.2849H16.4648L23.0653 61.3228H25.5592ZM27.1256 71.2767L24.3007 63.3675H24.2545L21.3796 71.2767H27.1256Z"
        fill="#F6A1C9" />
    <path
        d="M42.8085 63.641C42.058 63.0942 41.0959 62.8208 39.922 62.8208C39.4486 62.8208 38.9791 62.867 38.5211 62.9633C38.0631 63.0595 37.6552 63.2174 37.2972 63.4369C36.9432 63.6602 36.6584 63.9567 36.4428 64.3303C36.2273 64.7038 36.1234 65.1658 36.1234 65.7203C36.1234 66.244 36.2773 66.6676 36.5852 66.9911C36.8931 67.3145 37.3049 67.5802 37.8207 67.7881C38.3364 67.9961 38.9175 68.1655 39.5641 68.3003C40.2145 68.4351 40.8726 68.5814 41.5462 68.7393C42.2197 68.8971 42.8778 69.082 43.5282 69.2976C44.1748 69.5132 44.7598 69.802 45.2717 70.164C45.7874 70.5298 46.1992 70.988 46.5071 71.5425C46.815 72.097 46.9689 72.794 46.9689 73.6334C46.9689 74.5345 46.7649 75.3085 46.3647 75.9515C45.9606 76.5946 45.441 77.1144 44.8098 77.5188C44.1786 77.9231 43.4705 78.2157 42.6854 78.3967C41.9041 78.5777 41.1228 78.6701 40.3454 78.6701C39.3948 78.6701 38.498 78.5507 37.6513 78.3159C36.8046 78.0771 36.0618 77.719 35.4191 77.2338C34.7764 76.7525 34.2722 76.1325 33.8989 75.3816C33.5256 74.6308 33.3408 73.7374 33.3408 72.7093H35.4768C35.4768 73.4217 35.6154 74.0339 35.8925 74.5499C36.1696 75.0659 36.5352 75.4895 36.9855 75.8206C37.4358 76.1518 37.9631 76.3982 38.5635 76.5561C39.1638 76.714 39.7835 76.7948 40.4147 76.7948C40.9227 76.7948 41.4307 76.7486 41.9464 76.6524C42.4621 76.5561 42.924 76.3944 43.3358 76.1672C43.7476 75.9361 44.0786 75.6242 44.3326 75.2276C44.5866 74.831 44.7136 74.3227 44.7136 73.7066C44.7136 73.1213 44.5597 72.6477 44.2518 72.2819C43.9439 71.9161 43.5321 71.6196 43.0163 71.3924C42.5006 71.1613 41.9195 70.9765 41.2691 70.834C40.6186 70.6915 39.9605 70.5452 39.287 70.395C38.6135 70.2449 37.9515 70.0716 37.3049 69.8714C36.6545 69.6711 36.0734 69.4131 35.5576 69.0858C35.0419 68.7624 34.6301 68.3426 34.3222 67.8267C34.0143 67.3107 33.8604 66.6676 33.8604 65.8898C33.8604 65.0349 34.0336 64.2956 34.3838 63.6679C34.7302 63.0441 35.1959 62.5281 35.7732 62.1238C36.3505 61.7195 37.0086 61.4192 37.7437 61.2228C38.4788 61.0225 39.237 60.9263 40.0105 60.9263C40.8803 60.9263 41.6886 61.0302 42.4314 61.2343C43.1741 61.4423 43.8284 61.7657 44.3903 62.2085C44.9522 62.6514 45.3948 63.2097 45.7181 63.8836C46.0414 64.5574 46.2223 65.3584 46.2531 66.2941H44.1171C43.9901 65.0734 43.5513 64.1916 42.8008 63.6448"
        fill="#F6A1C9" />
    <path d="M48.3735 63.225V61.3228H61.9324V63.225H56.2825V78.2849H54.0272V63.225H48.3735Z"
        fill="#F6A1C9" />
    <path d="M66.5395 61.3228V76.3865H75.5146V78.2849H64.2842V61.3228H66.5395Z" fill="#F6A1C9" />
    <path
        d="M89.6662 61.3228V63.225H80.2177V68.6159H89.0273V70.5181H80.2177V76.3865H89.7393V78.2849H77.9624V61.3228H89.6662Z"
        fill="#F6A1C9" />
    <path
        d="M2.43213 134.332C9.89083 133.916 17.3495 133.696 24.8082 133.546C28.5376 133.454 32.2669 133.434 35.9963 133.377L47.1843 133.319L58.3724 133.373C62.1017 133.431 65.8311 133.446 69.5604 133.542C77.0191 133.689 84.4779 133.912 91.9366 134.332C84.4779 134.751 77.0191 134.971 69.5604 135.117C65.8311 135.21 62.1017 135.229 58.3724 135.287L47.1843 135.34L35.9963 135.283C32.2669 135.229 28.5376 135.206 24.8082 135.113C17.3495 134.963 9.89083 134.747 2.43213 134.328"
        fill="#F6A1C9" />
    <path
        d="M13.5781 51.6924C10.8687 42.9514 9.39849 33.7483 9.25609 24.449C21.1792 17.0172 34.2647 13.0973 47.1846 13.0973C60.1046 13.0973 73.19 17.0172 85.1132 24.449C84.9708 33.7483 83.5006 42.9514 80.7911 51.6924H83.2119C85.956 42.5664 87.4147 32.8819 87.4147 22.9626C74.9681 14.9148 61.0744 10.5327 47.1846 10.5327C33.2948 10.5327 19.4012 14.9148 6.95459 22.9588C6.95459 32.8781 8.41323 42.5625 11.1573 51.6886H13.5781V51.6924Z"
        fill="#F6A1C9" />
    <path
        d="M55.0742 42.3544L62.9678 45.7661V37.9647C62.9678 37.9647 61.7016 33.3824 59.019 33.186C56.3404 32.9896 55.0703 35.4271 55.0703 36.5977V42.3506L55.0742 42.3544Z"
        fill="#F6A1C9" />
    <path d="M52.2148 23.0239L56.6716 24.7798V18.0527L52.2148 23.0239Z" fill="#F6A1C9" />
    <path d="M61.3516 27.121L65.8083 28.877V22.146L61.3516 27.121Z" fill="#F6A1C9" />
    <path
        d="M47.1577 0.286325C47.0269 -0.221962 46.0339 -0.0486826 44.3328 0.767657C42.5047 1.64561 41.2616 4.64527 40.6073 5.0804C39.9492 5.51937 39.9492 4.78775 39.2911 3.83663C38.633 2.88552 38.1211 3.83663 38.1211 3.83663C38.1211 3.83663 36.5123 5.88518 35.123 7.29453C33.7336 8.70772 31.3975 8.2957 31.3975 8.2957C33.0793 9.39314 34.7612 8.80784 35.5656 8.22254C36.3699 7.63724 37.4668 6.90561 38.4174 7.29453C39.3681 7.68344 39.6606 8.58835 40.7574 9.08508C41.8543 9.58182 42.0005 8.66151 43.6824 8.95416C44.3136 9.06583 44.9679 9.09278 45.5375 9.08123V14.992L42.9512 15.9739V24.1643L37.69 26.3591V18.0225L32.8677 20.2173V28.993L27.4603 31.0415V21.8269L22.7842 24.1681V50.6414H47.1962V0.286325H47.1693H47.1577ZM38.7715 44.438L30.8779 47.8497V40.0482C30.8779 40.0482 32.1441 35.466 34.8266 35.2696C37.5053 35.0732 38.7754 37.5107 38.7754 38.6813V44.4341L38.7715 44.438Z"
        fill="#F6A1C9" />
    <path
        d="M0.369629 51.3727C8.17086 50.9453 15.9759 50.7181 23.7772 50.568C27.6797 50.4717 31.5784 50.4524 35.4809 50.3947L47.1847 50.3369L58.8885 50.3908C62.791 50.4486 66.6897 50.4678 70.5923 50.5641C78.3935 50.7143 86.1986 50.9415 93.9998 51.3727C86.1986 51.804 78.3935 52.0312 70.5923 52.1814C66.6897 52.2776 62.791 52.2969 58.8885 52.3547L47.1847 52.4086L35.4809 52.3508C31.5784 52.293 27.6797 52.2738 23.7772 52.1775C15.9759 52.0235 8.17086 51.8002 0.369629 51.3727Z"
        fill="#F6A1C9" />
    <path
        d="M8.74018 152.792V140.319H8.75557L15.0866 149.314L14.4016 149.18L20.7172 140.319H20.7518V152.792H19.147V143.997L19.247 144.817L14.6864 151.271H14.6517L10.0218 144.817L10.3066 144.066V152.792H8.73633H8.74018Z"
        fill="#F6A1C9" />
    <path
        d="M27.4873 146.754C27.4873 145.918 27.6451 145.129 27.9645 144.39C28.284 143.65 28.7266 142.992 29.2923 142.418C29.8619 141.844 30.5162 141.394 31.2551 141.063C31.9941 140.735 32.7946 140.57 33.6529 140.57C34.5111 140.57 35.2924 140.735 36.0352 141.063C36.7741 141.39 37.4322 141.844 38.0057 142.418C38.5791 142.992 39.0294 143.65 39.3527 144.39C39.676 145.129 39.8377 145.918 39.8377 146.754C39.8377 147.59 39.676 148.414 39.3527 149.161C39.0294 149.908 38.583 150.562 38.0057 151.124C37.4322 151.687 36.7741 152.126 36.0352 152.445C35.2962 152.761 34.4996 152.923 33.6529 152.923C32.8062 152.923 31.9941 152.765 31.2551 152.453C30.5124 152.141 29.8619 151.706 29.2923 151.148C28.7227 150.589 28.2801 149.938 27.9645 149.191C27.6451 148.444 27.4873 147.632 27.4873 146.75V146.754ZM29.1576 146.773C29.1576 147.409 29.2731 148.002 29.5079 148.552C29.7426 149.103 30.0659 149.592 30.4777 150.015C30.8895 150.439 31.3668 150.77 31.9133 151.009C32.4598 151.248 33.0486 151.367 33.6836 151.367C34.3187 151.367 34.8921 151.248 35.4386 151.009C35.9851 150.77 36.4585 150.439 36.8588 150.015C37.2591 149.592 37.5785 149.103 37.8094 148.552C38.0442 148.002 38.1596 147.401 38.1596 146.754C38.1596 146.107 38.0442 145.518 37.8094 144.956C37.5746 144.394 37.2514 143.901 36.8395 143.477C36.4277 143.054 35.9467 142.722 35.404 142.484C34.8575 142.245 34.2725 142.125 33.649 142.125C33.0255 142.125 32.4251 142.249 31.8786 142.495C31.3321 142.742 30.8549 143.077 30.4431 143.496C30.0313 143.92 29.7118 144.413 29.4925 144.975C29.2692 145.537 29.1576 146.138 29.1576 146.773Z"
        fill="#F6A1C9" />
    <path d="M45.6797 140.705H53.7003V142.26H50.4597V152.792H48.8394V142.26H45.6797V140.705Z"
        fill="#F6A1C9" />
    <path
        d="M60.2856 140.705H68.1408V142.26H61.9098V145.938H67.4749V147.493H61.9098V151.24H68.3755V152.796H60.2895V140.708L60.2856 140.705Z"
        fill="#F6A1C9" />
    <path d="M75.1875 140.705H76.8078V151.236H82.9387V152.792H75.1875V140.705Z" fill="#F6A1C9" />
</svg>