<svg width="186" height="80" viewBox="0 0 186 80" fill="none" xmlns="http://www.w3.org/2000/svg">
<path fill-rule="evenodd" clip-rule="evenodd" d="M64.4748 10.3322C64.5329 15.7244 64.4369 21.1557 64.4797 26.5509C64.4856 27.294 64.4211 31.5785 64.4797 32.1974C64.4797 33.0216 64.4801 32.7773 64.9895 32.8029C67.5352 32.9308 69.7786 33.7866 71.7395 35.4513C73.7099 37.1068 74.9448 39.481 75.1731 42.0509C75.3157 43.8285 75.2225 45.9678 75.1985 47.7775C75.1326 52.7561 75.9888 56.6436 72.5784 60.8117C68.7699 65.4661 61.5358 65.7308 57.1096 61.8839C54.7526 59.8355 53.7013 56.8323 53.4924 53.8107C55.2396 53.7422 56.9884 53.7254 58.7366 53.7599C58.9568 55.3214 59.0967 56.3015 59.717 57.7365C62.0848 62.7223 68.0645 60.8436 70.1194 56.6789C70.8023 55.2947 70.7681 53.681 70.7463 52.1749C69.5192 52.8445 68.54 53.2666 67.1633 53.5451C59.5768 55.0796 52.8846 48.7493 54.7102 40.9757C53.094 40.9202 51.995 40.8324 50.4485 40.2306C47.9091 39.2588 45.864 37.3034 44.7727 34.8039C43.6329 32.2349 43.5627 29.3148 44.5774 26.6935C45.6205 24.0371 47.681 21.912 50.2971 20.7941C53.3933 19.4525 56.064 19.6953 59.0969 20.8976C59.3712 17.4548 59.0809 13.8282 59.2688 10.4474L59.5041 10.3566C61.1453 10.3015 62.8297 10.3264 64.4748 10.3322ZM70.5715 42.8009C70.1839 39.5586 67.254 37.2445 64.0256 37.631C60.7936 38.0181 58.4865 40.9651 58.8743 44.2111C59.2622 47.4572 62.1984 49.7724 65.4299 49.38C68.6578 48.9881 70.959 46.0433 70.5715 42.8009ZM54.1907 23.9347C50.4418 24.3536 47.6035 27.3748 48.0403 31.2423C48.2322 32.9673 49.0937 34.547 50.4387 35.6369C51.6909 36.6327 53.4096 37.2188 55.012 37.1603C57.1809 36.8309 58.3161 35.7692 59.3879 34.506C61.0133 33.1624 61.1805 31.1311 60.9211 29.1593C60.3379 25.7942 57.4765 23.7645 54.1907 23.9347Z" fill="white"/>
<path fill-rule="evenodd" clip-rule="evenodd" d="M131.996 25.3672L132.003 36.0801C132.013 42.0775 132.963 49.2958 127.34 53.083C123.802 55.4655 117.775 55.0332 114.762 52.0244C111.147 48.5 110.811 42.0809 113.969 38.1934C117.014 34.4461 122.436 33.8967 126.611 35.8506C126.855 32.7273 126.701 27.813 126.699 24.5225C128.047 24.5264 129.393 24.5164 130.741 24.4922L131.987 24.4805L131.996 25.3672ZM127.256 43.8193C126.811 40.7949 124.03 38.689 121.013 39.0918C119.021 39.3576 117.326 40.681 116.578 42.5537C115.83 44.4263 116.143 46.5587 117.399 48.1338C118.654 49.7089 120.659 50.4826 122.642 50.1582C125.646 49.6667 127.701 46.8437 127.256 43.8193Z" fill="white"/>
<path fill-rule="evenodd" clip-rule="evenodd" d="M31.5801 20.2448C34.3846 20.3532 37.0294 21.5838 38.9258 23.6618C41.4823 26.4628 41.9735 29.5361 41.8145 33.1667C40.7642 33.3821 39.7492 33.5058 38.6787 33.5622C34.2951 33.7931 29.886 33.5539 25.5029 33.7224C25.7285 34.087 25.9792 34.4357 26.2529 34.7653C27.364 36.0904 29.1942 36.9436 30.8985 37.073C32.9264 37.2269 34.6132 36.2966 36.1055 35.0241L37.5098 35.8611C38.3162 36.3403 39.1575 36.8721 39.875 37.4763C38.6141 39.742 35.448 41.6789 32.9102 41.9929C29.9977 42.384 26.7832 41.9437 24.376 40.112C19.4908 36.3945 18.4433 29.3662 22.2188 24.446C24.1138 21.9765 26.6784 20.7169 29.6738 20.282C30.0481 20.2296 31.1802 20.2301 31.5801 20.2448ZM30.4707 25.4948C27.776 25.495 26.6282 26.8167 25.169 28.946C27.4125 28.9861 29.6564 29.0023 31.9004 28.9948C33.3576 29 34.8148 28.9697 36.2705 28.904C35.1167 26.3467 33.4649 25.4948 30.4707 25.4948Z" fill="white"/>
<path fill-rule="evenodd" clip-rule="evenodd" d="M87.0596 33.332C89.5482 33.0257 93.026 34.5667 94.7578 36.3301C97.9979 39.6307 97.7704 43.9198 97.5352 48.1846C97.4335 50.0237 97.502 52.1263 97.502 53.999C96.3541 54.0086 95.1653 54.0544 94.0147 54.083C94.0147 53.2275 93.9276 52.2152 93.8741 51.3506C92.5417 52.2808 92.1171 52.5708 90.5899 53.0811C84.3874 54.8125 78.277 51.0613 77.5967 44.4922C77.3122 41.8217 78.1 39.1477 79.7852 37.0625C81.5971 34.846 84.2474 33.6059 87.0596 33.332ZM93.3565 42.5986C92.9242 39.4194 90.011 37.1908 86.8448 37.6182C83.6691 38.0469 81.4426 40.9842 81.876 44.1729C82.3096 47.3613 85.2384 49.5913 88.4121 49.1494C91.5761 48.7086 93.7885 45.7778 93.3565 42.5986Z" fill="white"/>
<path fill-rule="evenodd" clip-rule="evenodd" d="M143.123 34.3307C147.887 33.561 153.427 37.373 154.217 42.1852C154.438 43.5318 154.343 45.0593 154.298 46.4225C153.303 46.5524 152.013 46.5654 150.988 46.6178C147.092 46.8175 143.082 46.5753 139.201 46.8043C139.4 47.1784 139.748 47.7537 140.055 48.0465C142.935 50.7869 146.348 50.7933 149.214 48.0475C149.558 48.2026 150.066 48.5232 150.403 48.7233C151.207 49.2617 151.944 49.7602 152.72 50.3395C150.893 52.6302 149.159 54.2346 146.094 54.7164C143.288 55.1634 140.421 54.4711 138.123 52.7926C135.968 51.2009 134.629 48.7095 134.241 46.0719C133.843 43.379 134.537 40.6374 136.171 38.4645C137.849 36.2136 140.351 34.7268 143.123 34.3307ZM143.59 39.1627C141.359 39.4764 140.197 40.5976 139.226 42.6012L145.248 42.608L149.45 42.5905C148.263 40.1834 146.248 39.1115 143.59 39.1627Z" fill="white"/>
<path d="M160.785 36.499C166.563 32.6424 174.446 35.2846 176.144 42.2049C176.56 43.9002 176.453 46.2869 176.444 48.0636L176.39 54.5402L172.272 54.5743C172.229 51.0022 172.391 47.0847 172.19 43.559C171.17 39.4267 165.792 37.2982 162.595 40.5152C161.823 41.301 161.27 42.2764 160.99 43.344C160.618 44.7989 160.738 47.1076 160.744 48.6783L160.757 54.5359C159.401 54.5677 158.002 54.5564 156.642 54.562C156.674 51.6827 156.581 48.6406 156.563 45.7447C156.56 42.1057 156.58 38.4668 156.623 34.828L158.03 34.7974C158.837 34.756 159.909 34.7825 160.735 34.7806L160.785 36.499Z" fill="white"/>
<path d="M6.68164 20.4379C8.0541 20.4469 9.42643 20.4666 10.7986 20.4971C10.85 21.3289 10.8846 22.1617 10.9023 22.995C13.3025 21.5727 15.3849 21.3417 18.0861 21.4266C18.0783 23.0375 18.0793 24.6485 18.0891 26.2593C17.4939 26.2464 16.8986 26.2386 16.3032 26.2362C14.1755 26.2383 12.4575 27.0367 11.4252 28.9519C10.6236 30.4392 10.7917 31.9836 10.8041 33.6146L10.8027 42.4048C9.45831 42.4312 8.06519 42.4159 6.71674 42.4192C6.63922 35.1179 6.79528 27.6974 6.68164 20.4379Z" fill="white"/>
<path d="M99.7344 33.8784C101.006 33.8553 102.315 33.8855 103.59 33.9005C103.624 34.6639 103.638 35.4612 103.661 36.2275C105.943 35.164 107.539 35.0647 109.996 35.0361L109.983 39.0719C109.654 39.0608 109.325 39.0538 108.996 39.0509C107.529 39.0433 106.137 39.3844 105.08 40.4536C103.291 42.2638 103.55 44.174 103.556 46.5348L103.588 54.0109C102.337 54.0289 101.088 54.0401 99.8379 54.0446L99.7344 33.8784Z" fill="white"/>
<path fill-rule="evenodd" clip-rule="evenodd" d="M136.431 59.6738C144.258 58.8409 146.427 67.2802 138.731 69.2442C136.054 69.9191 132.424 68.444 131.744 65.5889C130.936 62.314 133.696 60.3639 136.431 59.6738ZM137.421 61.5381C135.725 61.5383 134.522 62.8027 134.522 64.7256C134.522 66.5384 135.725 67.5272 137.585 67.5274C139.155 67.5274 140.539 66.2087 140.539 64.7256C140.539 62.9674 139.257 61.5381 137.421 61.5381Z" fill="white"/>
<path d="M116.88 60.1241L120.072 60.119L120.07 63.0649C121.539 63.0408 123.009 63.0479 124.477 63.0858C124.514 62.1991 124.515 61.2862 124.527 60.397C125.448 60.451 126.74 60.4079 127.688 60.4027C127.653 62.6035 127.716 64.821 127.701 67.0235C127.697 67.6068 127.728 68.172 127.651 68.7531C127.44 68.8974 127.191 68.8541 126.899 68.8631L124.482 68.874C124.546 67.8416 124.509 66.4105 124.513 65.3485C123.041 65.3232 121.568 65.3319 120.096 65.3747C120.151 66.3286 120.081 67.8615 120.066 68.857L116.862 68.8775C116.938 66.0248 116.885 62.9899 116.88 60.1241Z" fill="white"/>
<path d="M159.301 60.1533C161.744 60.0911 164.303 60.1303 166.75 60.1434L166.723 61.2757L161.923 61.2535L161.87 63.0432L166.749 63.0376C166.699 63.598 166.699 64.1996 166.688 64.7654L162.64 64.7452C162.387 64.734 162.295 64.7218 162.04 64.7856C161.701 65.1592 161.845 66.5251 161.841 67.133C163.477 67.1603 165.115 67.1637 166.751 67.143L166.677 68.8686C164.215 68.8505 161.754 68.8502 159.292 68.8676C159.353 66.0436 159.299 62.9965 159.301 60.1533Z" fill="white"/>
<path d="M145.948 59.8703C149.11 59.8324 152.272 59.8264 155.434 59.8521L155.399 61.277C154.275 61.2505 153.151 61.2525 152.028 61.283C151.999 62.3786 152.015 63.5478 152.011 64.6493C152.007 65.7594 151.991 66.8693 151.962 67.979C151.107 67.9788 150.251 67.9923 149.396 68.0193C149.47 65.8501 149.429 63.4403 149.427 61.2562C148.273 61.2529 147.12 61.2644 145.966 61.2907L145.948 59.8703Z" fill="white"/>
<path d="M171.135 59.8521L173.671 59.8589C173.672 61.6584 173.671 65.161 173.671 66.8639L179.26 66.8704C179.215 67.2442 179.219 67.881 179.212 68.2806C176.663 68.1846 173.695 68.2055 171.135 68.2612C171.135 65.8066 171.135 62.2582 171.135 59.8521Z" fill="white"/>
</svg>
