<svg width="44" height="31" viewBox="0 0 44 31" fill="none" xmlns="http://www.w3.org/2000/svg">
<circle cx="15.6279" cy="15.3017" r="14.8744" stroke="white" stroke-width="0.762791" stroke-dasharray="2.86 2.86"/>
<g clip-path="url(#clip0_8018_580)">
<path d="M42.4399 13.309L38.7499 9.58087C38.6612 9.4915 38.5558 9.42057 38.4396 9.37216C38.3234 9.32375 38.1988 9.29883 38.0729 9.29883C37.947 9.29883 37.8224 9.32375 37.7062 9.37216C37.59 9.42057 37.4846 9.4915 37.3959 9.58087C37.2183 9.75952 37.1187 10.0012 37.1187 10.2531C37.1187 10.505 37.2183 10.7466 37.3959 10.9253L40.7904 14.3483H11.8138C11.561 14.3483 11.3184 14.4488 11.1396 14.6276C10.9608 14.8064 10.8604 15.0489 10.8604 15.3018C10.8604 15.5547 10.9608 15.7972 11.1396 15.976C11.3184 16.1548 11.561 16.2553 11.8138 16.2553H40.8476L37.3959 19.6974C37.3066 19.786 37.2356 19.8915 37.1872 20.0077C37.1388 20.1239 37.1139 20.2485 37.1139 20.3744C37.1139 20.5002 37.1388 20.6249 37.1872 20.741C37.2356 20.8572 37.3066 20.9627 37.3959 21.0513C37.4846 21.1407 37.59 21.2116 37.7062 21.26C37.8224 21.3085 37.947 21.3334 38.0729 21.3334C38.1988 21.3334 38.3234 21.3085 38.4396 21.26C38.5558 21.2116 38.6612 21.1407 38.7499 21.0513L42.4399 17.3518C42.9756 16.8155 43.2764 16.0884 43.2764 15.3304C43.2764 14.5724 42.9756 13.8453 42.4399 13.309Z" fill="white"/>
</g>
<defs>
<clipPath id="clip0_8018_580">
<rect width="32.4186" height="22.8837" fill="white" transform="translate(10.8604 3.85986)"/>
</clipPath>
</defs>
</svg>
