<svg width="44" height="31" viewBox="0 0 44 31" fill="none" xmlns="http://www.w3.org/2000/svg">
<circle cx="15.6279" cy="15.7441" r="14.8744" stroke="black" stroke-width="0.762791" stroke-dasharray="2.86 2.86"/>
<g clip-path="url(#clip0_8035_738)">
<path d="M42.4399 13.7514L38.7499 10.0233C38.6612 9.93388 38.5558 9.86295 38.4396 9.81454C38.3234 9.76613 38.1988 9.74121 38.0729 9.74121C37.947 9.74121 37.8224 9.76613 37.7062 9.81454C37.59 9.86295 37.4846 9.93388 37.3959 10.0233C37.2183 10.2019 37.1187 10.4436 37.1187 10.6955C37.1187 10.9474 37.2183 11.189 37.3959 11.3677L40.7904 14.7907H11.8138C11.561 14.7907 11.3184 14.8911 11.1396 15.07C10.9608 15.2488 10.8604 15.4913 10.8604 15.7442C10.8604 15.9971 10.9608 16.2396 11.1396 16.4184C11.3184 16.5972 11.561 16.6977 11.8138 16.6977H40.8476L37.3959 20.1398C37.3066 20.2284 37.2356 20.3339 37.1872 20.45C37.1388 20.5662 37.1139 20.6909 37.1139 20.8167C37.1139 20.9426 37.1388 21.0672 37.1872 21.1834C37.2356 21.2996 37.3066 21.4051 37.3959 21.4937C37.4846 21.5831 37.59 21.654 37.7062 21.7024C37.8224 21.7508 37.947 21.7758 38.0729 21.7758C38.1988 21.7758 38.3234 21.7508 38.4396 21.7024C38.5558 21.654 38.6612 21.5831 38.7499 21.4937L42.4399 17.7942C42.9756 17.2578 43.2764 16.5308 43.2764 15.7728C43.2764 15.0148 42.9756 14.2877 42.4399 13.7514Z" fill="black"/>
</g>
<defs>
<clipPath id="clip0_8035_738">
<rect width="32.4186" height="22.8837" fill="white" transform="translate(10.8604 4.30225)"/>
</clipPath>
</defs>
</svg>
