<svg width="56" height="55" viewBox="0 0 56 55" fill="none" xmlns="http://www.w3.org/2000/svg">
<g clip-path="url(#clip0_20455_610)" filter="url(#filter0_d_20455_610)">
<path fill-rule="evenodd" clip-rule="evenodd" d="M28.629 45.7804C40.8435 45.7804 50.7452 35.9359 50.7452 23.792C50.7452 11.6481 40.8435 1.80353 28.629 1.80353C16.4145 1.80353 6.5127 11.6481 6.5127 23.792C6.5127 28.5168 8.01159 32.8936 10.5624 36.4779L8.67675 43.9769L15.9354 41.8004C19.5282 44.3083 23.9057 45.7804 28.629 45.7804Z" fill="#25D366"/>
<path d="M28.0712 0C14.9144 0 4.20512 10.646 4.19953 23.7309C4.19814 27.9135 5.29767 31.9963 7.38651 35.5949L4 47.8946L16.6544 44.5942C20.1414 46.4851 24.0665 47.4812 28.0614 47.4825H28.0712C41.2265 47.4825 51.9358 36.8351 51.9414 23.7503C51.9442 17.409 49.4633 11.4465 44.9563 6.96139C40.4493 2.47491 34.4563 0.00277457 28.0712 0ZM28.0712 43.4747H28.0628C24.5033 43.4747 21.0107 42.5216 17.9647 40.7251L17.2405 40.2978L9.73209 42.2567L11.7358 34.9776L11.2642 34.2312C9.2786 31.0904 8.2293 27.4599 8.2307 23.7336C8.23488 12.8573 17.1358 4.00925 28.0795 4.00925C33.3791 4.01064 38.3605 6.0652 42.1056 9.79422C45.8521 13.5219 47.913 18.4786 47.9116 23.7489C47.9074 34.6252 39.0065 43.4747 28.0712 43.4747ZM38.9535 28.7015C38.3577 28.4046 35.4246 26.9702 34.8777 26.7718C34.3307 26.5734 33.933 26.4749 33.5353 27.0687C33.1377 27.6624 31.9949 28.9984 31.6474 29.3938C31.3 29.7905 30.9512 29.8391 30.3553 29.5422C29.7595 29.2453 27.8367 28.6183 25.5595 26.5984C23.786 25.0266 22.5888 23.0844 22.2414 22.4906C21.894 21.8969 22.2037 21.5764 22.5037 21.2809C22.7716 21.016 23.0995 20.5887 23.3981 20.2419C23.6967 19.895 23.7958 19.6481 23.994 19.2513C24.1921 18.856 24.093 18.5091 23.9437 18.2123C23.7944 17.9154 22.6014 14.9965 22.1047 13.809C21.6205 12.6534 21.1293 12.8088 20.7623 12.7908C20.4149 12.7727 20.0172 12.7699 19.6195 12.7699C19.2219 12.7699 18.5758 12.9184 18.0288 13.5121C17.4819 14.1059 15.9414 15.5403 15.9414 18.4592C15.9414 21.378 18.0791 24.1984 18.3763 24.5938C18.6749 24.9891 22.5819 30.9794 28.5651 33.5473C29.9884 34.1577 31.0991 34.5225 31.9656 34.7958C33.3944 35.2467 34.6949 35.1829 35.7219 35.0303C36.8674 34.8597 39.2507 33.5958 39.7474 32.2099C40.2442 30.8254 40.2442 29.6379 40.0949 29.3896C39.9456 29.1427 39.5479 28.9942 38.9521 28.6973L38.9535 28.7015Z" fill="white"/>
</g>
<defs>
<filter id="filter0_d_20455_610" x="0.571428" y="0" width="54.8571" height="54.8571" filterUnits="userSpaceOnUse" color-interpolation-filters="sRGB">
<feFlood flood-opacity="0" result="BackgroundImageFix"/>
<feColorMatrix in="SourceAlpha" type="matrix" values="0 0 0 0 0 0 0 0 0 0 0 0 0 0 0 0 0 0 127 0" result="hardAlpha"/>
<feOffset dy="3.42857"/>
<feGaussianBlur stdDeviation="1.71429"/>
<feColorMatrix type="matrix" values="0 0 0 0 0 0 0 0 0 0 0 0 0 0 0 0 0 0 0.25 0"/>
<feBlend mode="normal" in2="BackgroundImageFix" result="effect1_dropShadow_20455_610"/>
<feBlend mode="normal" in="SourceGraphic" in2="effect1_dropShadow_20455_610" result="shape"/>
</filter>
<clipPath id="clip0_20455_610">
<rect width="48" height="48" fill="white" transform="translate(4)"/>
</clipPath>
</defs>
</svg>
